<?xml version="1.0" encoding="utf-8"?>
<!-- Generator: Adobe Illustrator 24.2.3, SVG Export Plug-In . SVG Version: 6.00 Build 0)  -->
<svg version="1.1" id="Layer_1" xmlns="http://www.w3.org/2000/svg" xmlns:xlink="http://www.w3.org/1999/xlink" x="0px" y="0px"
	 viewBox="0 0 443 105.3" style="enable-background:new 0 0 443 105.3;" xml:space="preserve">
<style type="text/css">
	.st0{fill-rule:evenodd;clip-rule:evenodd;fill:#FFFFFF;}
</style>
<path class="st0" d="M230.2,33.3l9.7-14.4h2.8v26.5h-3.2V25.1l-8.9,13h-0.8l-8.9-13v20.4h-3.1V19h2.8L230.2,33.3L230.2,33.3z
	 M211.4,32c0,0.1,0,0.2,0,0.3c0,1.7-0.3,3.4-1,5.1c-0.6,1.6-1.5,3.1-2.7,4.4c-1.2,1.3-2.6,2.3-4.2,3c-1.7,0.8-3.6,1.1-5.5,1.1
	c-1.9,0-3.7-0.3-5.5-1.1c-1.6-0.7-3-1.7-4.2-3c-1.2-1.3-2.1-2.7-2.7-4.3c-0.6-1.7-0.9-3.4-0.9-5.2v-0.1c0-1.8,0.3-3.5,1-5.2
	c0.6-1.6,1.5-3.1,2.7-4.4c1.2-1.3,2.6-2.3,4.2-3c1.7-0.8,3.6-1.1,5.5-1.1c1.9,0,3.7,0.3,5.4,1.1c1.6,0.7,3,1.7,4.2,3
	c1.2,1.3,2.1,2.7,2.7,4.3C211,28.6,211.3,30.3,211.4,32L211.4,32z M180.4,22.7l0.5,0.5l-2.3,2.3l-0.5-0.5c-0.5-0.5-1.1-1-1.7-1.4
	c-0.6-0.4-1.2-0.8-1.8-1.1c-0.7-0.3-1.4-0.6-2.1-0.7c-0.8-0.2-1.6-0.3-2.5-0.3c-1.4,0-2.7,0.3-3.9,0.8c-1.2,0.5-2.3,1.3-3.1,2.2
	c-0.9,1-1.6,2.1-2.1,3.4c-0.5,1.3-0.8,2.7-0.8,4.2v0.1c0,1.4,0.2,2.9,0.8,4.2c0.5,1.2,1.2,2.4,2.1,3.4c0.9,1,2,1.7,3.1,2.3
	c1.2,0.6,2.6,0.8,3.9,0.8c1.5,0,3.1-0.2,4.4-0.9c1.4-0.7,2.6-1.7,3.7-2.8l0.5-0.5l2.2,2.2l-0.5,0.5c-0.7,0.6-1.4,1.3-2.1,1.8
	c-0.7,0.6-1.5,1.1-2.4,1.5c-0.9,0.4-1.8,0.7-2.7,0.9c-1,0.2-2.1,0.3-3.2,0.3c-1.8,0-3.6-0.3-5.3-1.1c-1.6-0.7-3-1.7-4.2-2.9
	c-1.2-1.2-2.1-2.7-2.7-4.3c-0.7-1.7-1-3.5-1-5.3v-0.1c0-1.8,0.3-3.6,1-5.3c0.6-1.6,1.6-3.1,2.8-4.4c1.2-1.3,2.6-2.2,4.2-3
	c1.7-0.7,3.5-1.1,5.3-1.1c1.1,0,2.1,0.1,3.2,0.3c0.9,0.2,1.8,0.5,2.7,0.9c0.8,0.4,1.6,0.8,2.3,1.3C179.1,21.6,179.8,22.1,180.4,22.7
	L180.4,22.7z M253.3,36.1v9.4h-3.2V19h9.8c1.3,0,2.7,0.2,4,0.5c1.1,0.3,2.2,0.9,3.2,1.6c0.9,0.7,1.6,1.6,2.1,2.6
	c0.5,1.1,0.7,2.3,0.7,3.5v0.1c0,1.3-0.3,2.6-0.9,3.8c-0.6,1.1-1.3,2-2.3,2.7c-1,0.7-2.1,1.3-3.3,1.6c-1.3,0.4-2.6,0.5-3.9,0.5H253.3
	L253.3,36.1z M278.6,42.4h14.8v3h-18V19h3.2V42.4L278.6,42.4z M302.1,22v8.6h14.4v3h-14.4v8.8h16.2v3h-19.4V19h19.2v3H302.1
	L302.1,22z M334.4,22v23.5h-3.2V22h-8.8v-3h20.7v3H334.4L334.4,22z M352,22v8.6h14.4v3H352v8.8h16.2v3h-19.4V19h19.2v3H352L352,22z
	 M202,22.4c-1.3-0.6-2.6-0.8-4-0.8c-1.4,0-2.8,0.3-4,0.8c-1.2,0.5-2.3,1.3-3.2,2.3c-0.9,1-1.6,2.1-2.1,3.4c-0.5,1.3-0.7,2.7-0.7,4.1
	v0.1c0,1.4,0.2,2.8,0.8,4.2c0.5,1.2,1.2,2.4,2.1,3.4c0.9,1,2,1.7,3.2,2.3c1.3,0.6,2.6,0.8,4,0.8c1.4,0,2.8-0.3,4-0.8
	c1.2-0.5,2.3-1.3,3.2-2.3c0.9-1,1.6-2.1,2.1-3.4c0.5-1.3,0.7-2.7,0.7-4.1v-0.1c0-1.4-0.2-2.8-0.8-4.2c-0.5-1.2-1.2-2.4-2.1-3.4
	C204.3,23.7,203.2,22.9,202,22.4L202,22.4z M253.3,33.1h6.2c1,0,2-0.1,3-0.4c0.8-0.2,1.6-0.6,2.2-1.1c0.6-0.5,1.1-1.1,1.4-1.7
	c0.4-0.7,0.5-1.5,0.5-2.3v-0.1c0-0.8-0.1-1.6-0.5-2.4c-0.3-0.7-0.8-1.2-1.4-1.7c-0.7-0.5-1.4-0.8-2.2-1c-0.9-0.3-1.9-0.4-2.9-0.4
	h-6.5V33.1z"/>
<path class="st0" d="M170.2,59.4c-1.8,0-3.6,0.3-5.3,1.1c-1.6,0.7-3,1.7-4.2,3c-1.2,1.3-2.1,2.7-2.8,4.4c-0.7,1.7-1,3.5-1,5.3v0.1
	c0,1.8,0.3,3.6,1,5.3c0.6,1.6,1.5,3.1,2.7,4.3c1.2,1.2,2.6,2.2,4.2,2.9c1.7,0.7,3.4,1.1,5.3,1.1c1.1,0,2.2-0.1,3.2-0.3
	c0.9-0.2,1.9-0.5,2.7-0.9c0.8-0.4,1.6-0.9,2.4-1.5c0.7-0.6,1.4-1.2,2.1-1.8l0.5-0.5l-2.2-2.2l-0.5,0.5c-1.1,1.1-2.3,2.1-3.7,2.8
	c-1.4,0.7-2.9,0.9-4.4,0.9c-1.4,0-2.7-0.3-3.9-0.8c-1.2-0.5-2.3-1.3-3.1-2.3c-0.9-1-1.6-2.1-2.1-3.4c-0.5-1.3-0.8-2.8-0.8-4.2V73
	c0-1.4,0.2-2.8,0.8-4.2c0.5-1.2,1.2-2.4,2.1-3.4c0.9-1,2-1.7,3.1-2.2c1.2-0.6,2.6-0.8,3.9-0.8c0.8,0,1.6,0.1,2.5,0.3
	c0.7,0.2,1.4,0.4,2.1,0.7c0.6,0.3,1.2,0.7,1.8,1.1c0.6,0.4,1.1,0.9,1.7,1.4l0.5,0.5l2.3-2.3l-0.5-0.5c-0.7-0.6-1.3-1.2-2.1-1.7
	c-0.7-0.5-1.5-1-2.3-1.3c-0.9-0.4-1.8-0.7-2.7-0.9C172.3,59.5,171.2,59.4,170.2,59.4L170.2,59.4z M192.6,60.5c-1.6,0.7-3,1.7-4.2,3
	c-1.2,1.3-2.1,2.7-2.7,4.4c-0.6,1.7-1,3.4-1,5.2v0.1c0,1.8,0.3,3.5,0.9,5.2c0.6,1.6,1.5,3.1,2.7,4.3c1.2,1.3,2.6,2.3,4.2,3
	c1.7,0.8,3.6,1.1,5.5,1.1c1.9,0,3.7-0.3,5.5-1.1c1.6-0.7,3-1.7,4.2-3c1.2-1.3,2.1-2.7,2.7-4.4c0.6-1.6,0.9-3.3,1-5.1
	c0-0.1,0-0.2,0-0.3c0-1.7-0.3-3.4-0.9-5c-0.6-1.6-1.5-3.1-2.7-4.3c-1.2-1.3-2.6-2.3-4.2-3c-1.7-0.8-3.6-1.1-5.4-1.1
	C196.2,59.4,194.3,59.7,192.6,60.5L192.6,60.5z M198,62.4c1.4,0,2.8,0.3,4,0.8c1.2,0.5,2.3,1.3,3.2,2.3c0.9,1,1.6,2.1,2.1,3.4
	c0.5,1.3,0.8,2.7,0.8,4.2v0.1c0,1.4-0.2,2.8-0.7,4.1c-0.5,1.2-1.2,2.4-2.1,3.4c-0.9,1-2,1.7-3.2,2.3c-1.3,0.6-2.6,0.8-4,0.8
	c-1.4,0-2.8-0.3-4-0.8c-1.2-0.5-2.3-1.3-3.2-2.3c-0.9-1-1.6-2.1-2.1-3.4c-0.5-1.3-0.8-2.7-0.8-4.2V73c0-1.4,0.2-2.8,0.7-4.1
	c0.5-1.2,1.2-2.4,2.1-3.4c0.9-1,2-1.7,3.2-2.3C195.3,62.7,196.6,62.4,198,62.4L198,62.4z M217.7,59.8v26.5h3.1V65.2l16.7,21.1h2.4
	V59.8h-3.1v20.6l-16.4-20.6H217.7L217.7,59.8z M254.1,60.5c-1.6,0.7-3,1.7-4.2,3c-1.2,1.3-2.1,2.7-2.8,4.4c-0.7,1.7-1,3.5-1,5.3v0.1
	c0,1.8,0.3,3.6,1,5.3c0.6,1.6,1.5,3.1,2.7,4.3c1.2,1.2,2.6,2.2,4.2,2.9c1.7,0.7,3.4,1.1,5.3,1.1c1.1,0,2.2-0.1,3.2-0.3
	c0.9-0.2,1.9-0.5,2.7-0.9c0.8-0.4,1.6-0.9,2.4-1.5c0.7-0.6,1.4-1.2,2.1-1.8l0.5-0.5l-2.2-2.2l-0.5,0.5c-1.1,1.1-2.3,2.1-3.7,2.8
	c-1.4,0.7-2.9,0.9-4.4,0.9c-1.4,0-2.7-0.3-3.9-0.8c-1.2-0.5-2.3-1.3-3.1-2.3c-0.9-1-1.6-2.1-2.1-3.4c-0.5-1.3-0.8-2.8-0.8-4.2V73
	c0-1.4,0.2-2.8,0.8-4.2c0.5-1.2,1.2-2.4,2.1-3.4c0.9-1,2-1.7,3.1-2.2c1.2-0.6,2.6-0.8,3.9-0.8c0.8,0,1.6,0.1,2.5,0.3
	c0.7,0.2,1.4,0.4,2.1,0.7c0.6,0.3,1.2,0.7,1.8,1.1c0.6,0.4,1.1,0.9,1.7,1.4l0.5,0.5l2.3-2.3l-0.5-0.5c-0.7-0.6-1.3-1.2-2.1-1.7
	c-0.7-0.5-1.5-1-2.3-1.3c-0.9-0.4-1.8-0.7-2.7-0.9c-1-0.2-2.1-0.3-3.2-0.3C257.6,59.4,255.8,59.7,254.1,60.5L254.1,60.5z
	 M274.7,59.8v15.4c0,1.7,0.2,3.3,0.8,4.9c0.5,1.4,1.3,2.6,2.3,3.6c1,1,2.2,1.7,3.5,2.2c1.4,0.5,2.9,0.7,4.4,0.7c1.5,0,3-0.2,4.4-0.8
	c1.3-0.5,2.5-1.3,3.5-2.3c1-1.1,1.8-2.3,2.3-3.7c0.6-1.6,0.8-3.3,0.8-5V59.8h-3.2v15.4c0,1.3-0.1,2.6-0.6,3.8
	c-0.3,1-0.8,1.9-1.5,2.6c-0.7,0.7-1.5,1.2-2.4,1.6c-1,0.4-2.1,0.5-3.2,0.5c-2.2,0-4.3-0.6-5.8-2.2c-1.6-1.7-2.1-4.2-2.1-6.5V59.8
	H274.7L274.7,59.8z M305.6,61.5c-0.8,0.6-1.4,1.4-1.9,2.3c-0.5,0.9-0.7,1.9-0.7,2.9v0.1c0,1,0.1,1.9,0.5,2.8c0.4,0.9,1,1.6,1.7,2.2
	c0.8,0.7,1.8,1.2,2.8,1.6c1.3,0.5,2.6,0.9,4,1.1c1.2,0.2,2.3,0.5,3.4,0.9c0.7,0.3,1.4,0.6,2,1.1c0.4,0.3,0.7,0.7,0.9,1.2
	c0.2,0.5,0.3,1,0.3,1.6v0.1c0,0.6-0.1,1.2-0.4,1.7c-0.3,0.5-0.7,1-1.1,1.4c-0.5,0.4-1.2,0.7-1.8,0.9c-0.8,0.2-1.6,0.3-2.4,0.3
	c-0.8,0-1.6-0.1-2.5-0.2c-0.7-0.1-1.4-0.4-2.1-0.6c-0.7-0.3-1.4-0.7-2-1.1c-0.7-0.5-1.4-1-2-1.6l-0.5-0.5l-2.1,2.4l0.5,0.4
	c1.5,1.3,3.1,2.4,4.9,3.1c1.8,0.7,3.7,1.1,5.7,1.1c1.2,0,2.4-0.2,3.6-0.5c1-0.3,2-0.8,2.8-1.5c0.8-0.7,1.4-1.5,1.9-2.4
	c0.5-1,0.7-2,0.7-3.1v-0.1c0-1.9-0.7-3.6-2.2-4.9c-1.7-1.5-4.4-2.2-6.6-2.7c-1.2-0.2-2.4-0.5-3.6-1c-0.7-0.3-1.5-0.6-2.1-1.1
	c-0.4-0.3-0.7-0.7-0.9-1.2c-0.2-0.5-0.3-1-0.3-1.6v-0.1c0-0.5,0.1-1.1,0.4-1.5c0.3-0.5,0.6-0.9,1.1-1.3c0.5-0.4,1.1-0.7,1.7-0.9
	c0.7-0.2,1.5-0.3,2.3-0.3c1.3,0,2.5,0.2,3.7,0.6c1.3,0.4,2.4,1.2,3.4,2.1l0.5,0.4l2-2.5l-0.5-0.4c-1.2-1-2.6-1.8-4.1-2.4
	c-1.6-0.6-3.3-0.8-5-0.8c-1.2,0-2.3,0.2-3.4,0.5C307.4,60.4,306.4,60.9,305.6,61.5L305.6,61.5z M332.7,60c-1,0.3-1.9,0.8-2.8,1.5
	c-0.8,0.6-1.4,1.4-1.9,2.3c-0.5,0.9-0.7,1.9-0.7,2.9v0.1c0,1,0.1,1.9,0.5,2.8c0.4,0.9,1,1.6,1.7,2.2c0.8,0.7,1.8,1.2,2.8,1.6
	c1.3,0.5,2.6,0.9,4,1.1c1.2,0.2,2.3,0.5,3.4,0.9c0.7,0.3,1.4,0.6,2,1.1c0.4,0.3,0.7,0.7,0.9,1.2c0.2,0.5,0.3,1,0.3,1.6v0.1
	c0,0.6-0.1,1.2-0.4,1.7c-0.3,0.5-0.7,1-1.1,1.4c-0.5,0.4-1.2,0.7-1.8,0.9c-0.8,0.2-1.6,0.3-2.4,0.3c-0.8,0-1.6-0.1-2.5-0.2
	c-0.7-0.1-1.4-0.4-2.1-0.6c-0.7-0.3-1.4-0.7-2-1.1c-0.7-0.5-1.4-1-2-1.6l-0.5-0.5l-2.1,2.4l0.5,0.4c1.5,1.3,3.1,2.4,4.9,3.1
	c1.8,0.7,3.7,1.1,5.7,1.1c1.2,0,2.4-0.2,3.6-0.5c1-0.3,2-0.8,2.8-1.5c0.8-0.7,1.4-1.5,1.9-2.4c0.5-1,0.7-2,0.7-3.1v-0.1
	c0-1.9-0.7-3.6-2.2-4.9c-1.7-1.5-4.4-2.2-6.6-2.7c-1.2-0.2-2.4-0.5-3.6-1c-0.7-0.3-1.5-0.6-2.1-1.1c-0.4-0.3-0.7-0.7-0.9-1.2
	c-0.2-0.5-0.3-1-0.3-1.6v-0.1c0-0.5,0.1-1.1,0.4-1.5c0.3-0.5,0.6-0.9,1.1-1.3c0.5-0.4,1.1-0.7,1.7-0.9c0.7-0.2,1.5-0.3,2.3-0.3
	c1.3,0,2.5,0.2,3.7,0.6c1.3,0.4,2.4,1.2,3.4,2.1l0.5,0.4l2-2.5l-0.5-0.4c-1.2-1-2.6-1.8-4.1-2.4c-1.6-0.6-3.3-0.8-5-0.8
	C334.9,59.5,333.8,59.6,332.7,60L332.7,60z M352.5,59.8v26.5h3.2V59.8H352.5L352.5,59.8z M365.9,63.5c-1.2,1.3-2.1,2.7-2.7,4.4
	c-0.6,1.7-1,3.4-1,5.2v0.1c0,1.8,0.3,3.5,0.9,5.2c0.6,1.6,1.5,3.1,2.7,4.3c1.2,1.3,2.6,2.3,4.2,3c1.7,0.8,3.6,1.1,5.5,1.1
	c1.9,0,3.7-0.3,5.5-1.1c1.6-0.7,3-1.7,4.2-3c1.2-1.3,2.1-2.7,2.7-4.4c0.6-1.6,0.9-3.3,1-5.1c0-0.1,0-0.2,0-0.3c0-1.7-0.3-3.4-0.9-5
	c-0.6-1.6-1.5-3.1-2.7-4.3c-1.2-1.3-2.6-2.3-4.2-3c-1.7-0.8-3.6-1.1-5.4-1.1c-1.9,0-3.8,0.3-5.5,1.1
	C368.5,61.2,367.1,62.2,365.9,63.5L365.9,63.5z M368.3,65.5c0.9-1,2-1.7,3.2-2.3c1.3-0.6,2.6-0.8,4-0.8c1.4,0,2.8,0.3,4,0.8
	c1.2,0.5,2.3,1.3,3.2,2.3c0.9,1,1.6,2.1,2.1,3.4c0.5,1.3,0.8,2.7,0.8,4.2v0.1c0,1.4-0.2,2.8-0.7,4.1c-0.5,1.2-1.2,2.4-2.1,3.4
	c-0.9,1-2,1.7-3.2,2.3c-1.3,0.6-2.6,0.8-4,0.8c-1.4,0-2.8-0.3-4-0.8c-1.2-0.5-2.3-1.3-3.2-2.3c-0.9-1-1.6-2.1-2.1-3.4
	c-0.5-1.3-0.8-2.7-0.8-4.2V73c0-1.4,0.2-2.8,0.7-4.1C366.7,67.6,367.4,66.5,368.3,65.5L368.3,65.5z M395.2,59.8v26.5h3.1V65.2
	L415,86.3h2.4V59.8h-3.1v20.6l-16.4-20.6H395.2L395.2,59.8z M426.8,61.5c-0.8,0.6-1.4,1.4-1.9,2.3c-0.5,0.9-0.7,1.9-0.7,2.9v0.1
	c0,1,0.1,1.9,0.5,2.8c0.4,0.9,1,1.6,1.7,2.2c0.8,0.7,1.8,1.2,2.8,1.6c1.3,0.5,2.6,0.9,4,1.1c1.2,0.2,2.3,0.5,3.4,0.9
	c0.7,0.3,1.4,0.6,2,1.1c0.4,0.3,0.7,0.7,0.9,1.2c0.2,0.5,0.3,1,0.3,1.6v0.1c0,0.6-0.1,1.2-0.4,1.7c-0.3,0.5-0.7,1-1.1,1.4
	c-0.5,0.4-1.2,0.7-1.8,0.9c-0.8,0.2-1.6,0.3-2.4,0.3c-0.8,0-1.7-0.1-2.5-0.2c-0.7-0.1-1.4-0.4-2.1-0.6c-0.7-0.3-1.4-0.7-2-1.1
	c-0.7-0.5-1.4-1-2-1.6l-0.5-0.5L423,82l0.5,0.4c1.5,1.3,3.1,2.4,4.9,3.1c1.8,0.7,3.7,1.1,5.7,1.1c1.2,0,2.4-0.2,3.6-0.5
	c1-0.3,2-0.8,2.8-1.5c0.8-0.7,1.4-1.5,1.9-2.4c0.5-1,0.7-2,0.7-3.1v-0.1c0-1.9-0.7-3.6-2.2-4.9c-1.7-1.5-4.4-2.2-6.6-2.7
	c-1.2-0.2-2.4-0.5-3.6-1c-0.7-0.3-1.5-0.6-2.1-1.1c-0.4-0.3-0.7-0.7-0.9-1.2c-0.2-0.5-0.3-1-0.3-1.6v-0.1c0-0.5,0.1-1.1,0.4-1.5
	c0.3-0.5,0.6-0.9,1.1-1.3c0.5-0.4,1.1-0.7,1.7-0.9c0.7-0.2,1.5-0.3,2.3-0.3c1.3,0,2.5,0.2,3.7,0.6c1.3,0.4,2.4,1.2,3.4,2.1l0.5,0.4
	l2-2.5l-0.5-0.4c-1.2-1-2.6-1.8-4.1-2.4c-1.6-0.6-3.3-0.8-5-0.8c-1.2,0-2.3,0.2-3.4,0.5C428.5,60.4,427.6,60.9,426.8,61.5z"/>
<path class="st0" d="M36.9,13.3l1.7-2.1c0.8-1,2-1.5,3.3-1.3c1.3,0.2,2.3,1,2.8,2.1l6.6,15.5c0.6,1.4,0.3,2.9-0.8,4
	c-1.1,1.1-2.6,1.3-4,0.7l-20.8-9.6c-1.4-0.7-2.2-2.1-2.1-3.6c0.1-1.5,1.2-2.8,2.7-3.1L36.9,13.3L36.9,13.3z M56.8,33.6
	c0.4,0.9,1.1,1.6,2,2c1,0.4,1.9,0.3,2.8-0.1L72,30.3c1.2-0.6,1.9-1.7,2-3c0.1-1.3-0.6-2.5-1.7-3.2l-17-10.6c-1.4-0.8-3-0.7-4.2,0.3
	c-1.2,1-1.6,2.7-1,4.1L56.8,33.6L56.8,33.6z M67.5,35.5l7.6-3.7c1.1-0.5,2.2-0.5,3.3,0c1,0.6,1.7,1.5,1.9,2.7l1.1,7.8
	c0.2,1.3-0.3,2.6-1.4,3.4c-1.1,0.8-2.4,0.9-3.6,0.4L67.6,42c-1.3-0.6-2.1-1.8-2.1-3.2C65.5,37.4,66.2,36.2,67.5,35.5L67.5,35.5z
	 M84.5,45.3L83,34.4c-0.2-1.2,0.2-2.3,1.1-3.1c0.9-0.8,2-1.1,3.2-0.9l22.3,4.7c1.6,0.3,2.8,1.7,2.8,3.4c0.1,1.7-1,3.1-2.6,3.6
	l-20.8,6.2c-1,0.3-2,0.2-3-0.4C85.2,47.2,84.7,46.3,84.5,45.3L84.5,45.3z M96.9,48.7c-1.5,0.4-2.4,1.7-2.6,3.2
	c-0.1,1.5,0.7,2.9,2.1,3.5l17.1,7.9c1.1,0.5,2.2,0.5,3.2-0.1l9.9-5.3c0.6-0.3,0.9-0.9,0.9-1.6V44.4c0-1.2-0.5-2.2-1.4-2.9
	c-0.9-0.7-2-0.9-3.2-0.6L96.9,48.7L96.9,48.7z M65.6,44.1c-1.2-0.6-2.6-0.4-3.7,0.4c-1.1,0.8-1.6,2.1-1.3,3.5l3.1,17.9
	c0.3,1.4,1.3,2.5,2.7,2.9c1.4,0.3,2.8-0.2,3.7-1.3l9.2-12.2c0.7-0.9,0.9-1.9,0.6-3c-0.3-1.1-1-1.9-2-2.4L65.6,44.1L65.6,44.1z
	 M71.7,69.6l6.2-8.2c0.9-1.2,2.3-1.7,3.8-1.3c1.4,0.4,2.4,1.5,2.7,3l1.1,7.8c0.1,1-0.1,2-0.8,2.8c-0.7,0.8-1.5,1.2-2.6,1.3l-7.3,0.4
	c-1.4,0.1-2.7-0.6-3.4-1.9C70.8,72.2,70.9,70.8,71.7,69.6L71.7,69.6z M88,69.8l-1.4-9.8c-0.2-1.3,0.3-2.6,1.4-3.4
	c1.1-0.8,2.4-0.9,3.6-0.4l12.3,5.7c1.3,0.6,2.1,1.9,2.1,3.4c-0.1,1.5-0.9,2.7-2.3,3.2l-10.9,4.1c-1.1,0.4-2.1,0.3-3.1-0.3
	C88.8,71.8,88.2,70.9,88,69.8L88,69.8z M23.7,24.7c-1.4-0.6-2.9-0.4-4,0.7c-1.1,1.1-1.4,2.6-0.8,4l8.3,18.7c0.4,0.9,1.1,1.6,2.1,1.9
	c1,0.3,1.9,0.3,2.8-0.1l15.6-7.7c1.3-0.6,2-1.8,2-3.3c0-1.4-0.8-2.6-2.1-3.2L23.7,24.7L23.7,24.7z M32.9,52.5L52.3,43
	c1-0.5,2.2-0.5,3.2,0c1,0.5,1.7,1.4,1.9,2.6L62,72c0.2,1.1-0.1,2-0.7,2.9c-0.7,0.8-1.6,1.3-2.7,1.3l-12.7,0.5
	c-1.1,0-2.2-0.4-2.9-1.3l-8-9.5l-3.8-8.7C30.4,55.4,31.2,53.3,32.9,52.5L32.9,52.5z M72.3,20.9l-16.1-10c-1.3-0.8-2-2.4-1.6-3.9
	c0.4-1.5,1.6-2.6,3.2-2.7L72.3,3c1.9-0.2,3.6,1.2,3.8,3.1l1.6,11.2c0.2,1.4-0.4,2.7-1.6,3.5C75,21.6,73.6,21.6,72.3,20.9L72.3,20.9z
	 M81,20.7L79.4,9.3C79.2,8,79.6,6.8,80.6,6c1-0.8,2.3-1,3.5-0.6l14.4,5.2c1.4,0.5,2.3,1.7,2.4,3.2c0.1,1.5-0.7,2.8-2,3.4l-12.8,6.3
	c-1.1,0.5-2.2,0.5-3.3,0C81.8,22.8,81.2,21.9,81,20.7L81,20.7z M76.3,0C65.4,0.9,54.5,1.8,43.6,2.7c-1,0.1-1.8,0.5-2.5,1.3l-5.7,6.9
	l-22.6,5.6c-0.9,0.2-1.6,0.7-2.1,1.4l-9.9,14c-0.4,0.6-0.6,1.3-0.7,2L0,44.8c0,0.8,0.2,1.5,0.7,2.1l10.1,14.3c0.5,0.7,1.2,1.2,2,1.4
	L32,67.5c0.8,0.2,1.4,0.6,1.9,1.2l9,10.8l19.4-0.7c1,0,1.9,0.3,2.6,1l12.4,11.5c0.4,0.4,0.7,0.8,0.9,1.3l4.2,10.5
	c0.6,1.4,1.8,2.3,3.3,2.3h2.1c1,0,1.9-0.4,2.6-1.1c0.7-0.7,1-1.6,1-2.6l-0.2-6.7c0-1.7,1.1-3.1,2.7-3.6l13.9-3.6
	c0.5-0.1,1-0.4,1.4-0.7l12.2-10.4c1.5-1.3,1.7-3.5,0.5-5l-1.9-2.3c-0.7-0.9-0.9-1.9-0.7-3c0.2-1.1,0.8-1.9,1.8-2.5l7.3-3.9
	c1.2-0.6,1.9-1.8,1.9-3.2V38.6c0-0.8-0.2-1.5-0.7-2.2l-18.1-23.4c-0.4-0.6-1-0.9-1.6-1.2c-10.7-3.8-21.4-7.7-32-11.5
	C77.3,0,76.8,0,76.3,0L76.3,0z M14.6,26.4c-0.5-1.2-1.6-2-2.9-2.1c-1.3-0.1-2.5,0.4-3.3,1.5l-4.9,6.9c-0.4,0.6-0.6,1.3-0.7,2L2.7,44
	c0,0.8,0.2,1.5,0.7,2.1L11,56.9c1,1.4,2.9,1.9,4.5,1.1l7.7-3.8c1.7-0.8,2.5-2.9,1.7-4.7L14.6,26.4L14.6,26.4z M94.1,22.5
	c-1.4,0.7-2.2,2.1-2,3.7c0.2,1.5,1.3,2.7,2.8,3.1l21.2,4.5c1.5,0.3,3-0.3,3.8-1.6c0.8-1.3,0.7-2.9-0.2-4.1l-8.3-10.8
	c-1.1-1.4-2.9-1.8-4.4-1L94.1,22.5L94.1,22.5z M75.9,78l7.2-0.4c1.9-0.1,3.5,1.2,3.7,3.1l1.5,10.4l0.3,11.5h-3.6l-5-12.4l-6.4-6
	c-1.1-1-1.4-2.5-0.9-3.8C73.3,79,74.5,78.1,75.9,78L75.9,78z M90.3,85.3c0.1,1,0.7,1.9,1.6,2.5c0.9,0.6,1.9,0.8,2.9,0.5l11.8-3
	c0.5-0.1,1-0.4,1.4-0.7l11.1-9.4c0.7-0.6,0.8-1.7,0.2-2.5l-2.8-3.5c-1-1.2-2.6-1.7-4.1-1.1l-20.6,7.8c-1.6,0.6-2.5,2.2-2.3,3.9
	L90.3,85.3L90.3,85.3z M28.9,58.6l1.1,2.6c0.3,0.6,0.2,1.3-0.3,1.9c-0.5,0.5-1.1,0.8-1.8,0.6l-7-1.8c-0.7-0.2-1.3-0.8-1.3-1.6
	c-0.1-0.8,0.3-1.5,1-1.8l3.4-1.7c0.9-0.4,1.9-0.5,2.8-0.2C27.8,57,28.5,57.7,28.9,58.6z"/>
</svg>
