<?xml version="1.0" encoding="utf-8"?>
<!-- Generator: Adobe Illustrator 26.0.3, SVG Export Plug-In . SVG Version: 6.00 Build 0)  -->
<svg version="1.1" id="Layer_1" xmlns="http://www.w3.org/2000/svg" xmlns:xlink="http://www.w3.org/1999/xlink" x="0px" y="0px"
	 viewBox="0 0 130.3 105.3" style="enable-background:new 0 0 130.3 105.3;" xml:space="preserve">
<style type="text/css">
	.st0{fill-rule:evenodd;clip-rule:evenodd;fill:url(#SVGID_1_);}
</style>
<g>
	<linearGradient id="SVGID_1_" gradientUnits="userSpaceOnUse" x1="38.473" y1="75.2109" x2="105.2624" y2="7.474">
		<stop  offset="0" style="stop-color:#DB64E0"/>
		<stop  offset="0.5" style="stop-color:#2196F1"/>
		<stop  offset="1" style="stop-color:#48F0CB"/>
	</linearGradient>
	<path class="st0" d="M36.9,13.3l1.7-2.1c0.8-1,2-1.5,3.3-1.3c1.3,0.2,2.3,1,2.8,2.1l6.6,15.5c0.6,1.4,0.3,2.9-0.8,4
		c-1.1,1.1-2.6,1.3-4,0.7l-20.8-9.6c-1.4-0.7-2.2-2.1-2.1-3.6c0.1-1.5,1.2-2.8,2.7-3.1L36.9,13.3L36.9,13.3z M56.8,33.6
		c0.4,0.9,1.1,1.6,2,2c1,0.4,1.9,0.3,2.8-0.1L72,30.3c1.2-0.6,1.9-1.7,2-3c0.1-1.3-0.6-2.5-1.7-3.2l-17-10.6c-1.4-0.8-3-0.7-4.2,0.3
		c-1.2,1-1.6,2.7-1,4.1L56.8,33.6L56.8,33.6z M67.5,35.5l7.6-3.7c1.1-0.5,2.2-0.5,3.3,0c1,0.6,1.7,1.5,1.9,2.7l1.1,7.8
		c0.2,1.3-0.3,2.6-1.4,3.4c-1.1,0.8-2.4,0.9-3.6,0.4L67.6,42c-1.3-0.6-2.1-1.8-2.1-3.2C65.5,37.4,66.2,36.2,67.5,35.5L67.5,35.5z
		 M84.5,45.3L83,34.4c-0.2-1.2,0.2-2.3,1.1-3.1c0.9-0.8,2-1.1,3.2-0.9l22.3,4.7c1.6,0.3,2.8,1.7,2.8,3.4c0.1,1.7-1,3.1-2.6,3.6
		l-20.8,6.2c-1,0.3-2,0.2-3-0.4C85.2,47.2,84.7,46.3,84.5,45.3L84.5,45.3z M96.9,48.7c-1.5,0.4-2.4,1.7-2.6,3.2
		c-0.1,1.5,0.7,2.9,2.1,3.5l17.1,7.9c1.1,0.5,2.2,0.5,3.2-0.1l9.9-5.3c0.6-0.3,0.9-0.9,0.9-1.6V44.4c0-1.2-0.5-2.2-1.4-2.9
		c-0.9-0.7-2-0.9-3.2-0.6L96.9,48.7L96.9,48.7z M65.6,44.1c-1.2-0.6-2.6-0.4-3.7,0.4c-1.1,0.8-1.6,2.1-1.3,3.5l3.1,17.9
		c0.3,1.4,1.3,2.5,2.7,2.9c1.4,0.3,2.8-0.2,3.7-1.3l9.2-12.2c0.7-0.9,0.9-1.9,0.6-3c-0.3-1.1-1-1.9-2-2.4L65.6,44.1L65.6,44.1z
		 M71.7,69.6l6.2-8.2c0.9-1.2,2.3-1.7,3.8-1.3c1.4,0.4,2.4,1.5,2.7,3l1.1,7.8c0.1,1-0.1,2-0.8,2.8c-0.7,0.8-1.5,1.2-2.6,1.3
		l-7.3,0.4c-1.4,0.1-2.7-0.6-3.4-1.9C70.8,72.2,70.9,70.8,71.7,69.6L71.7,69.6z M88,69.8l-1.4-9.8c-0.2-1.3,0.3-2.6,1.4-3.4
		c1.1-0.8,2.4-0.9,3.6-0.4l12.3,5.7c1.3,0.6,2.1,1.9,2.1,3.4c-0.1,1.5-0.9,2.7-2.3,3.2l-10.9,4.1c-1.1,0.4-2.1,0.3-3.1-0.3
		C88.8,71.8,88.2,70.9,88,69.8L88,69.8z M23.7,24.7c-1.4-0.6-2.9-0.4-4,0.7c-1.1,1.1-1.4,2.6-0.8,4l8.3,18.7
		c0.4,0.9,1.1,1.6,2.1,1.9c1,0.3,1.9,0.3,2.8-0.1l15.6-7.7c1.3-0.6,2-1.8,2-3.3c0-1.4-0.8-2.6-2.1-3.2L23.7,24.7L23.7,24.7z
		 M32.9,52.5L52.3,43c1-0.5,2.2-0.5,3.2,0c1,0.5,1.7,1.4,1.9,2.6L62,72c0.2,1.1-0.1,2-0.7,2.9c-0.7,0.8-1.6,1.3-2.7,1.3l-12.7,0.5
		c-1.1,0-2.2-0.4-2.9-1.3l-8-9.5l-3.8-8.7C30.4,55.4,31.2,53.3,32.9,52.5L32.9,52.5z M72.3,20.9l-16.1-10c-1.3-0.8-2-2.4-1.6-3.9
		c0.4-1.5,1.6-2.6,3.2-2.7L72.3,3c1.9-0.2,3.6,1.2,3.8,3.1l1.6,11.2c0.2,1.4-0.4,2.7-1.6,3.5C75,21.6,73.6,21.6,72.3,20.9L72.3,20.9
		z M81,20.7L79.4,9.3C79.2,8,79.6,6.8,80.6,6c1-0.8,2.3-1,3.5-0.6l14.4,5.2c1.4,0.5,2.3,1.7,2.4,3.2c0.1,1.5-0.7,2.8-2,3.4
		l-12.8,6.3c-1.1,0.5-2.2,0.5-3.3,0C81.8,22.8,81.2,21.9,81,20.7L81,20.7z M76.3,0C65.4,0.9,54.5,1.8,43.6,2.7
		c-1,0.1-1.8,0.5-2.5,1.3l-5.7,6.9l-22.6,5.6c-0.9,0.2-1.6,0.7-2.1,1.4l-9.9,14c-0.4,0.6-0.6,1.3-0.7,2L0,44.8
		c0,0.8,0.2,1.5,0.7,2.1l10.1,14.3c0.5,0.7,1.2,1.2,2,1.4L32,67.5c0.8,0.2,1.4,0.6,1.9,1.2l9,10.8l19.4-0.7c1,0,1.9,0.3,2.6,1
		l12.4,11.5c0.4,0.4,0.7,0.8,0.9,1.3l4.2,10.5c0.6,1.4,1.8,2.3,3.3,2.3h2.1c1,0,1.9-0.4,2.6-1.1c0.7-0.7,1-1.6,1-2.6l-0.2-6.7
		c0-1.7,1.1-3.1,2.7-3.6l13.9-3.6c0.5-0.1,1-0.4,1.4-0.7l12.2-10.4c1.5-1.3,1.7-3.5,0.5-5l-1.9-2.3c-0.7-0.9-0.9-1.9-0.7-3
		c0.2-1.1,0.8-1.9,1.8-2.5l7.3-3.9c1.2-0.6,1.9-1.8,1.9-3.2V38.6c0-0.8-0.2-1.5-0.7-2.2l-18.1-23.4c-0.4-0.6-1-0.9-1.6-1.2
		c-10.7-3.8-21.4-7.7-32-11.5C77.3,0,76.8,0,76.3,0L76.3,0z M14.6,26.4c-0.5-1.2-1.6-2-2.9-2.1c-1.3-0.1-2.5,0.4-3.3,1.5l-4.9,6.9
		c-0.4,0.6-0.6,1.3-0.7,2L2.7,44c0,0.8,0.2,1.5,0.7,2.1L11,56.9c1,1.4,2.9,1.9,4.5,1.1l7.7-3.8c1.7-0.8,2.5-2.9,1.7-4.7L14.6,26.4
		L14.6,26.4z M94.1,22.5c-1.4,0.7-2.2,2.1-2,3.7c0.2,1.5,1.3,2.7,2.8,3.1l21.2,4.5c1.5,0.3,3-0.3,3.8-1.6c0.8-1.3,0.7-2.9-0.2-4.1
		l-8.3-10.8c-1.1-1.4-2.9-1.8-4.4-1L94.1,22.5L94.1,22.5z M75.9,78l7.2-0.4c1.9-0.1,3.5,1.2,3.7,3.1l1.5,10.4l0.3,11.5h-3.6l-5-12.4
		l-6.4-6c-1.1-1-1.4-2.5-0.9-3.8C73.3,79,74.5,78.1,75.9,78L75.9,78z M90.3,85.3c0.1,1,0.7,1.9,1.6,2.5c0.9,0.6,1.9,0.8,2.9,0.5
		l11.8-3c0.5-0.1,1-0.4,1.4-0.7l11.1-9.4c0.7-0.6,0.8-1.7,0.2-2.5l-2.8-3.5c-1-1.2-2.6-1.7-4.1-1.1l-20.6,7.8
		c-1.6,0.6-2.5,2.2-2.3,3.9L90.3,85.3L90.3,85.3z M28.9,58.6l1.1,2.6c0.3,0.6,0.2,1.3-0.3,1.9c-0.5,0.5-1.1,0.8-1.8,0.6l-7-1.8
		c-0.7-0.2-1.3-0.8-1.3-1.6c-0.1-0.8,0.3-1.5,1-1.8l3.4-1.7c0.9-0.4,1.9-0.5,2.8-0.2C27.8,57,28.5,57.7,28.9,58.6z"/>
</g>
</svg>
